<?xml version="1.0" encoding="utf-8"?>
<!-- Generator: Adobe Illustrator 28.3.0, SVG Export Plug-In . SVG Version: 6.00 Build 0)  -->
<svg version="1.1" id="Calque_1" xmlns="http://www.w3.org/2000/svg" xmlns:xlink="http://www.w3.org/1999/xlink" x="0px" y="0px"
	 viewBox="0 0 64 64" style="enable-background:new 0 0 64 64;" xml:space="preserve">
<style type="text/css">
	.st0{fill:#1E3101;}
	.st1{fill:#99E83F;}
</style>
<g>
	<path class="st0" d="M11.3,0h41.3C58.9,0,64,5.2,64,11.6v40.8C64,58.8,58.9,64,52.7,64H11.3C5.1,64,0,58.8,0,52.4V11.6
		C0,5.2,5.1,0,11.3,0z"/>
	<path class="st1" d="M13.9,44.6V17.1c0-0.2,0.1-0.3,0.3-0.3c0.5,0,1,0,1.6,0s1.3,0,2,0l2.3,0c0.8,0,1.6,0,2.4,0
		c2.2,0,4,0.3,5.5,0.8c1.3,0.5,2.6,1.2,3.6,2.2c0.9,0.9,1.5,1.9,2,3c0.4,1.1,0.6,2.3,0.6,3.5c0,2.3-0.5,4.2-1.6,5.7
		c-1.1,1.5-2.6,2.6-4.3,3.2c-1.9,0.7-4,1-6,1c-0.6,0-1.1,0-1.3,0c-0.3,0-0.6,0-1.2,0v8.5c0,0.2-0.1,0.4-0.3,0.4c0,0-0.1,0-0.1,0
		h-5.2C14,44.9,13.9,44.8,13.9,44.6z M19.8,22v8.9c0.4,0,0.7,0,1,0h1.4c1,0,2.1-0.1,3.1-0.4c0.9-0.3,1.6-0.7,2.2-1.4
		c0.6-0.7,0.8-1.6,0.8-2.7c0-0.8-0.2-1.6-0.6-2.4c-0.5-0.7-1.1-1.2-1.9-1.5c-1-0.4-2.1-0.6-3.1-0.5c-0.7,0-1.3,0-1.8,0
		C20.3,21.9,20,22,19.8,22L19.8,22z"/>
	<path class="st1" d="M50.1,40.6v3.5c0,0.3-0.1,0.5-0.3,0.6c-0.6,0.2-1.1,0.3-1.7,0.4c-0.7,0.1-1.4,0.2-2.1,0.2
		c-1.9,0-3.3-0.5-4.4-1.5c-1.1-1-1.6-2.5-1.6-4.7V28.5h-2.5c-0.2,0-0.3-0.1-0.3-0.4v-4.3c0-0.2,0.1-0.3,0.4-0.3H40
		c0-0.5,0.1-1.1,0.1-1.7c0-0.6,0.1-1.3,0.2-1.9c0.1-0.6,0.1-1.2,0.2-1.6c0-0.1,0.1-0.2,0.1-0.2c0.1-0.1,0.1-0.1,0.2-0.2l5.1-0.6
		c0.1,0,0.2,0,0.2,0c0.1,0,0.1,0.1,0.1,0.2c-0.1,0.7-0.1,1.6-0.1,2.7c0,1.1-0.1,2.2-0.1,3.3h4c0.2,0,0.3,0.1,0.3,0.3v4.3
		c0,0.1-0.1,0.3-0.2,0.3H46v9.2c0,1,0.2,1.7,0.5,2.1c0.3,0.4,0.9,0.6,1.8,0.6c0.3,0,0.5,0,0.7,0c0.2,0,0.5,0,0.7-0.1
		c0.1,0,0.2,0,0.2,0C50.1,40.4,50.1,40.5,50.1,40.6z"/>
</g>
</svg>
